<?xml version="1.0" standalone="no"?>
<!DOCTYPE svg PUBLIC "-//W3C//DTD SVG 20010904//EN"
 "http://www.w3.org/TR/2001/REC-SVG-20010904/DTD/svg10.dtd">
<svg version="1.0" xmlns="http://www.w3.org/2000/svg"
 width="1080.000000pt" height="1080.000000pt" viewBox="0 0 1080.000000 1080.000000"
 preserveAspectRatio="xMidYMid meet">
<metadata>
Created by potrace 1.11, written by Peter Selinger 2001-2013
</metadata>
<g transform="translate(0.000000,1080.000000) scale(0.100000,-0.100000)"
fill="#000000" stroke="none">
<path d="M5267 9973 c-1 0 -16 -3 -34 -6 -17 -3 -37 -8 -42 -12 -6 -3 -11 -2
-11 2 0 10 -40 10 -56 1 -5 -3 -30 -5 -56 -4 -25 1 -44 -2 -41 -7 3 -5 -5 -7
-18 -6 -13 2 -30 -1 -38 -5 -11 -7 -12 -6 -6 5 7 11 6 12 -6 3 -15 -12 -21
-13 -81 -17 -21 -1 -38 -4 -38 -7 0 -3 -8 -6 -17 -7 -20 -2 -48 -8 -107 -22
-22 -5 -44 -8 -48 -5 -4 3 -8 0 -8 -7 0 -7 -3 -10 -6 -6 -3 3 -24 -1 -47 -9
-23 -8 -47 -12 -53 -10 -7 3 -14 0 -16 -5 -2 -6 -16 -12 -31 -12 -15 -1 -27
-6 -27 -10 0 -5 -4 -6 -9 -2 -5 3 -13 0 -16 -6 -4 -5 -13 -8 -20 -5 -8 3 -15
1 -17 -3 -3 -8 -92 -41 -121 -45 -10 -1 -22 -8 -26 -15 -4 -7 -12 -11 -17 -9
-5 1 -24 -6 -42 -15 -18 -10 -37 -15 -42 -12 -5 3 -13 -2 -18 -10 -4 -9 -18
-17 -30 -18 -12 -1 -22 -4 -22 -7 0 -3 -15 -11 -32 -19 -18 -8 -35 -17 -38
-20 -3 -3 -16 -12 -29 -19 -19 -11 -22 -11 -16 0 3 7 -1 4 -9 -6 -9 -11 -19
-17 -22 -13 -3 3 -15 -2 -25 -12 -11 -10 -32 -24 -47 -31 -15 -8 -34 -20 -42
-26 -8 -7 -19 -12 -23 -12 -5 0 -19 -9 -32 -20 -13 -11 -25 -18 -28 -16 -2 2
-16 -7 -30 -20 -14 -13 -28 -21 -31 -19 -3 3 -8 -2 -12 -11 -3 -9 -10 -13 -15
-10 -5 3 -9 0 -9 -6 0 -6 -4 -8 -10 -5 -5 3 -10 1 -10 -5 0 -6 -11 -15 -25
-20 -14 -5 -25 -14 -25 -20 0 -5 -5 -10 -11 -10 -7 0 -18 -8 -25 -17 -7 -10
-17 -18 -22 -18 -6 0 -24 -15 -41 -32 -17 -18 -31 -30 -31 -26 0 4 -16 -8 -35
-27 -19 -19 -35 -31 -35 -27 0 4 -17 -10 -37 -32 -20 -22 -41 -37 -46 -34 -6
3 -8 2 -5 -3 3 -5 -3 -17 -14 -26 -10 -10 -18 -15 -18 -11 0 4 -7 -3 -16 -15
-8 -12 -20 -19 -26 -16 -6 4 -8 2 -5 -4 4 -5 -6 -21 -22 -35 -17 -14 -27 -28
-24 -31 4 -3 -1 -6 -11 -6 -9 0 -15 -4 -11 -9 3 -5 -4 -12 -15 -16 -11 -4 -18
-10 -15 -14 7 -12 -55 -61 -77 -61 -10 0 -18 -5 -18 -12 0 -6 -3 -9 -6 -5 -3
3 -22 -3 -41 -14 -19 -11 -39 -16 -45 -13 -6 4 -8 3 -5 -3 4 -6 -8 -18 -26
-28 -77 -40 -87 -47 -87 -56 0 -6 -5 -7 -10 -4 -6 3 -13 -1 -16 -9 -3 -9 -10
-14 -14 -11 -4 3 -11 -2 -14 -11 -3 -8 -10 -12 -16 -9 -5 3 -10 -1 -10 -10 0
-9 -4 -13 -10 -10 -5 3 -10 2 -10 -4 0 -5 -9 -13 -20 -16 -11 -4 -18 -11 -15
-16 4 -5 2 -9 -2 -9 -19 0 -222 -185 -291 -265 -7 -9 -18 -13 -23 -9 -5 3 -9
2 -8 -3 4 -14 -24 -63 -32 -57 -5 3 -14 -6 -20 -20 -7 -14 -16 -23 -20 -20 -5
3 -11 -6 -14 -19 -4 -14 -17 -30 -30 -37 -13 -7 -23 -16 -22 -19 2 -7 -11 -23
-54 -70 -14 -16 -29 -36 -32 -45 -4 -9 -11 -16 -17 -16 -6 0 -8 -4 -5 -10 3
-5 2 -10 -4 -10 -5 0 -12 -8 -16 -19 -3 -10 -19 -32 -35 -49 -15 -17 -26 -33
-23 -36 3 -3 -2 -8 -11 -12 -9 -3 -13 -10 -10 -15 3 -5 -2 -12 -10 -15 -9 -3
-14 -10 -11 -14 3 -5 -6 -20 -19 -33 -14 -14 -22 -28 -19 -31 4 -3 1 -6 -6 -6
-7 0 -9 -4 -6 -10 3 -5 1 -10 -4 -10 -6 0 -11 -6 -11 -13 0 -8 -9 -24 -20 -37
-11 -12 -17 -27 -14 -31 3 -5 -2 -12 -10 -15 -9 -3 -13 -10 -10 -15 3 -5 1 -9
-3 -9 -5 0 -17 -22 -28 -50 -11 -27 -23 -50 -27 -50 -4 0 -8 -9 -8 -21 0 -13
-4 -18 -12 -13 -6 4 -8 3 -5 -3 6 -9 -7 -46 -34 -95 -5 -10 -9 -25 -9 -33 0
-8 -4 -15 -8 -15 -4 0 -9 -11 -10 -25 -1 -14 -9 -37 -18 -50 -13 -20 -13 -25
-3 -25 10 0 10 -3 3 -8 -6 -4 -15 -23 -20 -42 -11 -47 -11 -49 -14 -57 -1 -5
-2 -11 -1 -15 0 -5 -3 -8 -8 -8 -4 0 -6 -11 -3 -25 2 -14 -1 -32 -8 -40 -9
-11 -9 -15 -1 -15 7 0 9 -5 4 -12 -4 -7 -9 -44 -10 -83 -2 -38 -5 -78 -7 -87
-2 -10 -1 -18 3 -18 11 0 0 -84 -13 -92 -8 -6 -7 -8 2 -8 8 0 12 -18 12 -57 0
-80 2 -93 12 -93 5 0 4 -9 -2 -19 -6 -12 -6 -21 -1 -23 6 -2 11 -28 13 -60 1
-31 6 -54 10 -52 8 5 13 -33 10 -69 -1 -11 2 -15 9 -11 7 4 10 1 7 -7 -3 -8 2
-23 11 -33 10 -12 11 -16 2 -11 -9 5 -8 0 3 -17 9 -14 13 -28 9 -31 -3 -4 -1
-7 5 -7 7 0 12 -6 12 -14 0 -20 71 -137 87 -143 7 -3 13 -14 13 -24 0 -11 7
-19 16 -19 8 0 13 -3 11 -7 -2 -5 7 -18 20 -30 13 -12 23 -20 23 -17 0 4 9 -4
20 -17 10 -13 19 -21 20 -16 0 4 15 0 32 -10 52 -27 100 -43 137 -43 38 0 144
52 181 91 14 14 34 28 43 32 10 4 15 11 12 17 -3 5 -2 10 2 10 5 0 18 7 29 16
10 8 12 12 4 9 -8 -4 2 9 22 29 21 20 38 38 38 41 0 3 0 10 0 16 0 5 4 8 8 5
5 -3 15 7 23 22 8 15 20 31 27 35 7 5 10 12 7 18 -4 5 1 12 9 15 9 3 14 10 11
14 -3 4 2 11 11 14 8 3 12 10 9 16 -3 5 -1 10 4 10 6 0 11 7 11 15 0 7 8 18
18 24 9 5 16 12 15 15 -2 3 0 6 5 6 4 1 9 -10 10 -22 2 -13 9 -29 14 -35 8 -9
7 -13 -3 -13 -11 0 -11 -2 -1 -9 7 -4 14 -18 15 -29 1 -12 5 -22 10 -22 4 0 7
-8 6 -17 -1 -10 3 -31 10 -47 16 -39 17 -87 3 -113 -7 -12 -12 -31 -12 -42 0
-12 -4 -21 -8 -21 -4 0 -8 -8 -9 -17 -5 -59 -11 -102 -17 -112 -11 -17 -7
-216 4 -216 3 0 10 -42 13 -77 1 -16 6 -28 10 -28 5 0 7 -8 5 -17 -2 -10 3
-24 12 -31 13 -11 13 -12 0 -6 -13 7 -13 5 -1 -9 7 -9 10 -17 6 -17 -4 0 -2
-6 4 -13 6 -8 8 -17 4 -21 -4 -4 -2 -10 4 -14 7 -4 14 -19 17 -32 3 -14 9 -41
14 -60 9 -39 5 -70 -9 -70 -5 0 -8 -3 -7 -7 3 -13 -36 -113 -44 -113 -4 0 -5
-6 -2 -14 3 -8 1 -17 -5 -21 -6 -3 -11 -19 -11 -36 0 -16 -4 -29 -8 -29 -10 0
-10 1 -11 -95 -1 -74 2 -99 14 -127 4 -10 8 -29 9 -43 0 -14 4 -25 7 -25 7 0
20 -34 24 -62 1 -10 7 -24 14 -31 6 -8 12 -26 13 -40 1 -14 6 -23 10 -21 4 3
8 -6 8 -19 0 -14 6 -30 13 -36 14 -11 16 -71 4 -101 -8 -22 -19 -71 -24 -105
-2 -16 -8 -32 -13 -33 -6 -2 -8 -7 -6 -11 3 -4 6 -31 7 -59 2 -29 7 -52 12
-52 5 0 7 -6 4 -14 -3 -8 1 -17 9 -20 9 -3 13 -10 9 -15 -3 -5 -1 -12 5 -16 6
-4 7 -11 4 -17 -4 -7 -2 -8 4 -4 7 4 12 2 12 -3 0 -22 1 -27 16 -49 9 -13 13
-26 10 -30 -4 -3 3 -16 15 -28 12 -13 19 -30 16 -38 -4 -10 -1 -16 7 -16 8 0
17 -7 20 -16 4 -10 2 -13 -7 -8 -6 4 -3 -2 8 -13 11 -11 23 -19 28 -16 4 2 7
1 7 -4 0 -9 48 -33 67 -33 7 0 13 -4 13 -10 0 -5 7 -10 15 -10 8 0 15 -4 15
-10 0 -5 3 -9 8 -8 12 3 82 -25 82 -34 0 -4 3 -7 8 -6 13 4 81 -26 76 -33 -2
-5 3 -6 13 -5 10 2 39 -7 66 -19 26 -13 44 -18 40 -12 -5 8 -2 8 8 0 9 -7 25
-14 37 -16 12 -2 25 -6 28 -10 4 -4 16 -7 26 -7 10 0 18 -4 18 -10 0 -5 6 -9
13 -7 6 1 11 -4 10 -10 -2 -7 2 -13 9 -13 9 0 9 -3 0 -12 -8 -8 -8 -17 -1 -31
8 -14 8 -18 0 -13 -8 5 -8 0 -2 -17 5 -14 6 -28 1 -33 -9 -10 -21 -92 -20
-137 0 -15 -3 -27 -8 -27 -4 0 -6 -15 -4 -34 2 -18 -1 -37 -7 -40 -7 -4 -7
-15 -1 -31 7 -18 6 -28 -4 -37 -7 -7 -11 -20 -8 -30 2 -10 1 -26 -3 -35 -4
-10 -7 -37 -7 -60 1 -24 -2 -43 -6 -43 -11 0 -8 -124 3 -132 7 -5 6 -8 0 -8
-7 0 -9 -15 -7 -36 3 -24 0 -39 -9 -45 -12 -7 -12 -9 0 -9 9 0 12 -9 9 -30 -3
-17 -2 -30 1 -30 3 0 6 -24 6 -53 0 -28 4 -55 9 -58 5 -4 9 -18 9 -33 0 -14 4
-26 9 -26 6 0 7 -7 4 -16 -4 -10 -2 -13 6 -8 7 5 9 0 6 -14 -4 -12 -3 -22 1
-22 15 0 48 -87 50 -135 6 -86 19 -145 33 -145 6 0 8 -9 5 -19 -3 -12 1 -22 9
-25 8 -3 14 -13 14 -21 0 -10 5 -13 12 -9 8 5 9 2 5 -9 -4 -11 -1 -17 9 -17 8
0 13 -4 10 -9 -3 -5 1 -11 9 -15 8 -3 15 -10 15 -16 0 -15 25 -40 40 -40 6 0
8 -4 5 -10 -3 -5 2 -10 11 -10 10 0 15 -3 12 -6 -3 -3 4 -16 16 -28 11 -13 35
-39 53 -59 17 -19 34 -32 37 -29 3 3 6 1 6 -4 0 -6 11 -23 24 -40 14 -16 26
-33 28 -39 2 -5 14 -21 26 -35 31 -32 82 -108 82 -121 0 -5 5 -9 11 -9 6 0 9
-9 6 -20 -3 -11 -2 -20 2 -20 9 0 43 -81 45 -107 0 -13 4 -23 7 -23 5 0 31
-78 34 -100 0 -3 6 -15 13 -27 7 -13 10 -23 7 -23 -3 0 4 -18 15 -40 11 -21
20 -46 20 -55 0 -9 4 -13 10 -10 5 3 10 -2 10 -11 0 -10 3 -15 6 -12 3 3 20
-8 38 -26 45 -43 138 -96 170 -96 8 0 18 -4 21 -10 3 -5 15 -10 26 -10 11 0
18 -4 15 -8 -8 -13 121 -135 134 -127 4 3 11 -2 14 -10 5 -13 59 -42 62 -33 1
2 11 -6 23 -16 12 -11 21 -15 21 -10 0 5 4 5 8 -1 11 -15 93 -55 85 -42 -4 7
1 6 10 -2 9 -7 17 -11 17 -7 0 4 13 0 29 -9 19 -9 32 -11 36 -5 4 6 12 7 18 3
19 -12 36 -14 152 -13 126 0 155 3 172 13 6 4 14 3 17 -1 6 -10 32 -8 59 3 9
4 33 5 52 3 19 -2 37 1 39 7 3 6 5 5 5 -2 1 -9 8 -10 28 -2 14 5 34 7 42 4 9
-4 51 -6 93 -6 42 0 79 -3 82 -8 6 -9 54 -7 63 3 3 3 15 0 26 -6 29 -15 307
-11 347 6 8 3 24 7 35 9 11 1 26 6 33 11 7 4 16 6 19 2 3 -3 12 2 20 10 9 8
22 13 30 10 8 -3 11 -2 8 3 -4 8 34 28 43 22 1 -1 12 8 24 19 12 11 27 20 32
20 6 0 25 11 41 25 17 13 35 28 40 32 42 33 76 64 76 70 1 4 5 7 11 5 5 -1 7
2 3 7 -3 6 4 15 15 21 11 6 20 8 20 5 0 -3 10 0 23 7 12 7 24 13 27 13 18 4
66 32 73 42 4 7 15 9 24 6 11 -4 14 -3 9 5 -4 7 -1 12 8 12 9 0 16 3 16 8 0 4
14 16 30 27 16 11 30 26 30 33 0 7 6 15 14 18 8 3 12 12 9 20 -3 8 1 14 8 14
7 0 9 3 6 6 -3 4 0 16 8 26 7 11 11 27 8 34 -3 8 -1 14 4 14 8 0 36 79 38 110
0 8 7 14 15 12 12 -3 12 -1 3 9 -7 7 -8 18 -3 28 18 35 45 106 43 112 -1 4 4
13 12 19 8 7 15 19 15 26 0 8 5 14 12 14 6 0 9 3 5 6 -6 7 -5 8 44 67 17 20
28 37 25 37 -4 0 4 11 18 24 15 13 26 27 26 32 0 5 23 31 50 57 28 27 50 52
50 57 0 5 6 13 13 17 8 4 22 20 32 35 9 15 21 26 25 23 4 -2 13 7 20 20 7 13
17 22 22 19 5 -3 7 -1 6 4 -2 5 9 24 25 41 15 17 24 31 20 31 -4 0 2 7 13 16
10 8 13 12 6 9 -11 -6 -11 -3 0 14 7 12 16 21 20 21 4 0 5 7 2 15 -4 8 -1 15
6 15 6 0 9 4 5 9 -3 5 -1 12 4 16 6 3 8 11 5 19 -3 7 0 24 5 39 7 17 7 28 1
32 -6 4 -10 11 -10 16 0 6 6 7 13 3 9 -6 9 -5 0 7 -10 12 -10 19 1 35 7 10 23
45 35 76 13 32 28 58 35 58 6 0 6 4 -3 9 -9 6 -10 11 -2 15 6 4 9 11 6 16 -3
5 -1 11 5 15 6 4 8 10 5 15 -3 5 -1 11 5 15 7 4 7 12 0 25 -7 12 -6 20 1 22 7
2 10 57 9 163 -2 198 -3 215 -14 215 -5 0 -3 6 3 13 6 8 8 17 4 21 -8 7 -8 7
-17 86 -3 30 -9 69 -12 87 -3 17 -7 49 -9 70 -2 21 -4 38 -6 38 -1 0 -3 18 -5
40 -9 92 -12 114 -18 123 -3 6 -3 13 2 16 5 3 7 21 6 41 -3 33 -1 36 29 42 18
4 36 6 40 5 5 -1 6 2 2 8 -3 5 3 11 14 11 28 2 34 3 46 10 10 6 57 19 72 20 5
0 16 8 26 16 9 9 17 13 17 8 0 -4 7 -2 15 5 8 7 15 9 15 5 0 -5 8 -1 18 7 9 8
27 14 39 13 12 -1 20 2 17 7 -3 4 2 8 10 8 9 0 16 4 16 10 0 5 7 6 17 3 11 -4
14 -3 9 5 -6 11 13 17 30 10 3 -2 9 4 14 13 5 8 27 21 50 29 22 7 40 17 40 22
0 5 5 6 10 3 6 -3 10 1 10 9 0 9 4 16 8 16 4 0 16 14 25 30 10 17 15 30 11 30
-4 0 0 8 8 18 9 9 21 34 27 54 7 21 17 40 22 43 5 4 9 15 9 26 0 10 5 19 11
19 5 0 7 4 4 10 -3 6 -2 10 4 10 6 0 13 16 17 35 3 19 10 37 14 40 8 5 7 21
-6 95 -4 25 -7 53 -8 62 0 9 -4 14 -8 12 -4 -3 -8 3 -9 13 0 10 -3 27 -6 38
-10 36 -8 100 2 98 6 -1 12 7 13 18 4 43 6 49 14 49 4 0 7 3 6 8 -1 4 4 23 11
42 8 19 15 38 16 43 1 4 3 8 5 10 1 1 3 11 5 22 2 11 9 21 15 23 5 2 8 8 4 13
-3 5 -2 15 3 21 8 14 10 24 16 76 3 18 7 35 10 39 4 3 2 13 -3 23 -5 10 -6 20
-3 24 10 10 10 56 0 56 -5 0 -7 9 -4 20 3 11 1 23 -5 26 -5 3 -7 12 -4 20 3 8
0 14 -6 14 -6 0 -8 3 -5 6 3 4 1 16 -5 28 -7 11 -13 30 -15 41 -2 11 -8 24
-13 29 -6 6 -10 21 -10 34 0 13 -4 20 -10 17 -5 -3 -10 0 -11 7 -1 19 -6 40
-14 61 -4 9 -3 17 2 17 5 0 10 6 10 13 1 25 12 66 23 86 6 12 8 21 5 21 -3 0
-1 9 5 21 6 11 13 28 15 37 2 9 8 37 15 62 14 58 21 98 23 133 1 15 4 27 7 27
3 0 4 30 2 68 -5 96 -7 116 -16 131 -4 7 -5 15 -2 18 3 3 1 12 -5 19 -6 8 -9
21 -5 29 3 8 1 15 -5 15 -5 0 -9 6 -8 13 2 13 -7 41 -22 70 -6 11 -6 24 0 36
6 10 8 21 5 23 -2 3 1 18 7 34 7 16 11 35 10 42 -1 6 2 12 8 12 5 0 8 11 6 25
-1 14 2 25 6 25 5 0 9 11 9 24 0 14 5 28 10 31 6 4 8 10 5 14 -2 5 1 30 8 57
7 27 13 63 12 79 0 17 4 33 9 36 5 4 11 38 13 75 2 38 8 73 13 78 4 4 4 21 0
37 -5 16 -5 29 -1 29 9 0 9 2 12 92 2 65 3 66 32 72 29 6 66 39 68 60 0 6 0
30 -1 54 -1 23 2 42 7 42 4 0 8 14 8 30 0 17 -3 30 -7 30 -14 0 -8 15 15 40
12 14 29 40 36 58 7 17 18 32 23 32 5 0 6 4 3 10 -5 8 18 54 35 70 3 3 6 12 7
20 7 48 27 120 33 120 3 0 5 14 2 30 -3 20 0 30 8 30 10 0 10 3 0 15 -7 9 -8
15 -2 15 6 0 7 13 2 35 -4 19 -5 35 -1 35 3 0 6 16 6 35 0 19 -3 35 -7 35 -4
0 -5 6 -3 13 9 24 12 77 5 82 -4 3 -8 23 -8 46 -1 22 -6 47 -13 55 -7 9 -8 14
-1 14 7 0 6 13 -4 35 -8 19 -11 35 -8 35 4 0 1 6 -5 14 -6 8 -11 18 -10 22 1
5 1 11 -1 14 -1 3 -3 14 -5 26 -3 11 -13 40 -24 64 -11 24 -17 48 -15 52 3 4
0 8 -5 8 -6 0 -11 6 -11 13 0 6 -11 34 -24 62 -14 27 -22 54 -19 59 4 5 1 6
-5 2 -10 -6 -17 7 -9 17 1 2 -6 11 -16 21 -9 10 -15 22 -12 27 4 5 1 9 -4 9
-6 0 -11 7 -11 15 0 8 -4 15 -10 15 -5 0 -10 7 -10 15 0 9 -7 18 -16 22 -8 3
-13 12 -10 20 3 7 -1 16 -9 19 -8 4 -12 10 -9 15 3 5 -2 9 -10 9 -9 0 -18 11
-22 25 -3 14 -10 25 -15 25 -5 0 -9 7 -9 15 0 8 -5 15 -12 15 -6 0 -9 2 -6 5
3 3 -10 21 -29 41 -18 20 -30 41 -26 47 3 7 2 9 -2 4 -9 -7 -45 20 -45 34 0 5
-18 27 -40 50 -22 23 -42 50 -45 60 -4 11 -11 19 -16 19 -6 0 -15 14 -20 30
-6 17 -15 30 -19 30 -10 0 -66 100 -62 112 1 4 -2 8 -8 8 -5 0 -10 7 -10 15 0
8 -4 15 -9 15 -9 0 -26 48 -23 63 1 4 -2 7 -7 7 -8 0 -24 32 -26 52 0 3 -3 10
-7 14 -5 4 -8 18 -8 31 0 13 -4 23 -9 23 -5 0 -11 14 -15 30 -3 17 -6 33 -7
38 -1 4 -8 12 -15 17 -7 6 -14 16 -16 23 -3 13 -76 92 -85 92 -3 0 -17 8 -31
18 -15 10 -49 25 -77 32 -27 7 -54 16 -60 19 -5 3 -18 4 -29 2 -10 -1 -16 1
-13 6 3 4 -7 9 -21 10 -52 3 -137 14 -152 19 -8 3 -40 8 -70 11 -30 2 -73 8
-95 13 -25 6 -42 5 -46 -1 -3 -6 -10 -4 -17 4 -7 8 -23 12 -36 10 -13 -3 -34
0 -46 7 -17 9 -21 9 -15 0 5 -9 2 -10 -11 -3 -11 5 -39 11 -64 12 -25 2 -47 6
-50 9 -3 4 -23 8 -45 9 -21 1 -46 5 -55 9 -16 7 -72 15 -102 15 -10 0 -18 4
-18 9 0 4 -8 7 -17 6 -10 -2 -46 5 -80 15 -35 10 -63 16 -63 13 0 -2 -10 2
-23 11 -13 8 -26 13 -29 10 -2 -3 -30 4 -61 14 -32 11 -57 17 -57 14 0 -3 -7
1 -17 8 -9 8 -19 14 -22 13 -13 -2 -41 9 -41 15 0 4 -10 7 -22 6 -13 -1 -41 6
-63 15 -22 9 -46 15 -52 13 -7 -3 -13 -1 -13 4 0 4 -14 9 -31 9 -17 1 -34 6
-38 10 -3 5 -26 11 -51 12 -25 2 -46 8 -48 12 -2 5 -14 5 -27 0 -15 -6 -25 -5
-27 1 -2 5 -25 10 -51 11 -26 0 -47 4 -47 9 0 7 -39 4 -67 -6 -6 -2 -13 0 -15
6 -2 7 -334 19 -341 12z"/>
</g>
</svg>
